<?xml version="1.0" standalone="no"?>
<!DOCTYPE svg PUBLIC "-//W3C//DTD SVG 20010904//EN"
 "http://www.w3.org/TR/2001/REC-SVG-20010904/DTD/svg10.dtd">
<svg version="1.0" xmlns="http://www.w3.org/2000/svg"
 width="512.000000pt" height="512.000000pt" viewBox="0 0 512.000000 512.000000"
 preserveAspectRatio="xMidYMid meet">

<g transform="translate(0.000000,512.000000) scale(0.100000,-0.100000)"
fill="#000000" stroke="none">
<path d="M560 4545 l0 -335 -280 0 -280 0 0 -585 0 -585 280 0 280 0 0 -1400
0 -1400 150 0 150 0 2 1397 3 1398 283 3 282 2 0 585 0 585 -285 0 -285 0 0
335 0 335 -150 0 -150 0 0 -335z m570 -920 l0 -285 -415 0 -415 0 0 285 0 285
415 0 415 0 0 -285z"/>
<path d="M2410 3845 l0 -1035 -280 0 -280 0 0 -585 0 -585 280 0 280 0 0 -700
0 -700 150 0 150 0 0 700 0 700 280 0 280 0 0 585 0 585 -280 0 -280 0 0 1035
0 1035 -150 0 -150 0 0 -1035z m560 -1620 l0 -285 -410 0 -410 0 0 285 0 285
410 0 410 0 0 -285z"/>
<path d="M4260 4545 l0 -335 -285 0 -285 0 0 -585 0 -585 283 -2 282 -3 3
-1398 2 -1397 150 0 150 0 0 1400 0 1400 280 0 280 0 0 585 0 585 -280 0 -280
0 0 335 0 335 -150 0 -150 0 0 -335z m560 -920 l0 -285 -415 0 -415 0 0 285 0
285 415 0 415 0 0 -285z"/>
</g>
</svg>
