<?xml version="1.0" standalone="no"?>
<!DOCTYPE svg PUBLIC "-//W3C//DTD SVG 20010904//EN"
 "http://www.w3.org/TR/2001/REC-SVG-20010904/DTD/svg10.dtd">
<svg version="1.0" xmlns="http://www.w3.org/2000/svg"
 width="512.000000pt" height="512.000000pt" viewBox="0 0 512.000000 512.000000"
 preserveAspectRatio="xMidYMid meet">

<g transform="translate(0.000000,512.000000) scale(0.100000,-0.100000)"
fill="#000000" stroke="none">
<path d="M2474 5104 c-97 -35 -108 -52 -339 -515 -141 -281 -222 -432 -236
-439 -11 -7 -231 -42 -489 -79 -423 -61 -472 -70 -513 -95 -108 -62 -153 -188
-111 -308 19 -57 42 -81 417 -444 163 -158 300 -297 303 -308 3 -12 -30 -219
-72 -461 -42 -242 -77 -465 -77 -495 0 -30 7 -71 16 -91 23 -56 82 -114 139
-139 44 -19 64 -22 125 -17 l73 5 0 -797 0 -798 23 -34 c50 -75 145 -101 220
-63 17 9 159 102 314 205 156 104 287 189 293 189 6 0 137 -85 293 -189 155
-103 297 -196 314 -205 73 -37 165 -13 217 57 21 28 21 34 24 832 l2 803 73
-5 c61 -5 81 -2 125 17 57 25 116 83 139 138 8 20 15 61 15 92 0 30 -34 253
-76 495 -42 242 -75 449 -72 461 3 11 135 145 293 298 390 377 408 397 429
458 45 137 -32 291 -165 328 -20 6 -238 40 -484 75 -246 36 -457 70 -468 75
-12 7 -102 176 -229 430 -115 230 -224 435 -241 455 -18 20 -50 46 -73 57 -52
27 -147 33 -202 12z m135 -171 c16 -11 94 -159 228 -430 129 -263 216 -427
238 -452 60 -66 90 -73 589 -146 253 -36 467 -70 477 -76 46 -24 52 -91 12
-135 -16 -17 -171 -170 -346 -340 -187 -181 -327 -324 -338 -346 -37 -73 -35
-99 46 -568 42 -245 77 -461 77 -480 0 -42 -39 -80 -82 -80 -19 0 -178 78
-440 215 -232 122 -433 221 -461 227 -36 8 -62 9 -97 0 -26 -6 -234 -108 -461
-226 -259 -136 -423 -216 -441 -216 -44 0 -84 40 -83 81 1 19 36 234 78 479
81 469 83 495 46 568 -12 23 -153 168 -348 357 -180 175 -336 328 -345 339
-30 36 -20 104 20 125 9 5 224 39 477 76 499 72 530 80 590 146 22 24 109 191
238 452 134 271 212 419 228 430 30 22 68 22 98 0z m96 -2840 l110 -58 3 -784
c2 -644 0 -782 -11 -778 -7 3 -48 28 -90 55 -140 91 -170 91 -307 2 -50 -33
-95 -60 -100 -60 -6 0 -10 282 -10 780 l0 780 23 14 c81 51 225 116 247 112
14 -3 75 -31 135 -63z m-575 -951 l0 -799 -97 -65 c-54 -35 -110 -73 -125 -82
l-28 -18 0 818 0 819 118 62 c64 34 120 62 125 62 4 1 7 -358 7 -797z m994
733 l116 -60 0 -818 0 -817 -125 82 -124 83 -1 798 c0 483 4 797 9 795 5 -1
61 -30 125 -63z"/>
</g>
</svg>
