<?xml version="1.0" standalone="no"?>
<!DOCTYPE svg PUBLIC "-//W3C//DTD SVG 20010904//EN"
 "http://www.w3.org/TR/2001/REC-SVG-20010904/DTD/svg10.dtd">
<svg version="1.0" xmlns="http://www.w3.org/2000/svg"
 width="512.000000pt" height="512.000000pt" viewBox="0 0 512.000000 512.000000"
 preserveAspectRatio="xMidYMid meet">

<g transform="translate(0.000000,512.000000) scale(0.100000,-0.100000)"
fill="#000000" stroke="none">
<path d="M1705 1508 c-3 -13 -39 -228 -80 -478 -41 -250 -78 -467 -81 -483
l-6 -27 1021 0 1021 0 -5 22 c-3 13 -39 228 -80 478 -41 250 -78 467 -81 483
l-6 27 -849 0 -849 0 -5 -22z m1170 -333 c24 -23 25 -30 25 -150 0 -120 -1
-127 -25 -150 l-24 -25 -294 0 c-367 0 -341 -12 -345 155 -4 126 5 166 41 183
14 7 130 11 310 11 l288 1 24 -25z"/>
</g>
</svg>
