<svg height="512" viewBox="0 0 512 512" width="512" xmlns="http://www.w3.org/2000/svg"><g id="filled_outline" data-name="filled outline"><path d="m256 49.889.009-.023c17.146-42.255 80.029-29.746 79.7 15.853v.025l.018-.018c32.011-32.476 85.32 3.144 67.565 45.146l-.009.023.023-.01c42-17.754 77.622 35.555 45.146 67.566l-.018.018h.025c45.6-.329 58.107 62.554 15.853 79.7l-.023.01.023.009c42.254 17.146 29.746 80.029-15.853 79.7h-.025l.018.018c32.476 32.01-3.144 85.32-45.146 67.565l-.023-.01.009.024c17.755 42-35.554 77.622-67.565 45.145l-.018-.018v.026c.33 45.6-62.553 58.107-79.7 15.853l-.009-.024-.009.024c-17.146 42.254-80.029 29.746-79.7-15.853v-.026l-.018.018c-32.011 32.477-85.32-3.143-67.565-45.145l.009-.024-.023.01c-42 17.755-77.622-35.555-45.146-67.565l.018-.018h-.025c-45.6.33-58.107-62.553-15.853-79.7l.023-.009-.023-.01c-42.254-17.145-29.746-80.028 15.853-79.7h.025l-.018-.018c-32.476-32.011 3.144-85.32 45.146-67.566l.023.01-.009-.023c-17.755-42 35.554-77.622 67.565-45.146l.018.018v-.025c-.33-45.6 62.553-58.108 79.7-15.853z" fill="#ea9d2d"/><path d="m296 240h48v128h-48z" fill="#eaeae8"/><path d="m256.425 209.7-.425-1.7v-32h-13.714a26.286 26.286 0 0 0 -26.286 26.286v37.714h-55.548c-8.615 0-16.028 6.621-16.434 15.226a16 16 0 0 0 15.982 16.774h8a16 16 0 0 0 0 32 16 16 0 0 0 0 32 16 16 0 0 0 -15.982 16.774c.406 8.605 7.819 15.226 16.434 15.226h127.548v-128h-.769a40 40 0 0 1 -38.806-30.3z" fill="#fdc9a6"/><path d="m344 240h64v128h-64z" fill="#0276b4"/><g fill="#c38325"><path d="m256 88 11.48 15.045 17.856 6.269-10.761 15.567-.444 18.92-18.131-5.425-18.131 5.425-.444-18.92-10.761-15.567 17.856-6.269z"/><path d="m165.336 119.801 11.48 15.045 17.856 6.269-10.761 15.567-.444 18.919-18.131-5.424-18.131 5.424-.443-18.919-10.762-15.567 17.856-6.269z"/><path d="m346.664 119.801-11.48 15.045-17.856 6.269 10.761 15.567.444 18.919 18.131-5.424 18.131 5.424.443-18.919 10.762-15.567-17.856-6.269z"/></g><path d="m497.176 210.2c-3.216-16.166-14.76-32.391-34.043-37.828 9.789-17.487 6.48-37.114-2.674-50.814s-26.012-24.27-45.929-21.909c2.358-19.908-8.212-36.779-21.915-45.935s-33.33-12.463-50.819-2.671c-5.442-19.285-21.662-30.827-37.823-34.043s-35.542 1.235-47.966 16.987c-12.41-15.744-31.82-20.2-47.98-16.987s-32.381 14.757-37.827 34.047c-17.489-9.791-37.119-6.483-50.819 2.671s-24.269 26.028-21.914 45.928c-19.907-2.346-36.767 8.215-45.926 21.916s-12.459 33.306-2.66 50.816c-19.3 5.438-30.841 21.661-34.057 37.826s1.245 35.578 16.974 47.978c-15.736 12.41-20.188 31.808-16.974 47.967s14.76 32.391 34.043 37.829c-9.789 17.487-6.48 37.114 2.674 50.814s26.017 24.265 45.929 21.908c-2.358 19.908 8.212 36.779 21.915 45.936s33.329 12.461 50.819 2.671c5.442 19.289 21.662 30.831 37.823 34.046a51.442 51.442 0 0 0 10.012.979c13.639 0 28.041-5.37 37.963-17.956 12.411 15.736 31.813 20.189 47.971 16.977s32.381-14.753 37.827-34.046c17.49 9.794 37.119 6.483 50.819-2.671s24.273-26.029 21.918-45.928a47.325 47.325 0 0 0 5.553.329c17.465 0 32.083-9.839 40.373-22.245 9.149-13.692 12.459-33.307 2.66-50.816 19.3-5.439 30.841-21.662 34.057-37.827s-1.245-35.578-16.974-47.977c15.732-12.41 20.184-31.809 16.97-47.972zm-35.966 40.592a8.008 8.008 0 0 0 .09 14.808c18.867 7.655 22.663 24.947 20.18 37.428-2.47 12.419-12.5 26.858-32.742 26.858h-.308a8.007 8.007 0 0 0 -5.6 13.715c14.5 14.294 11.391 31.721 4.32 42.3s-21.979 20.129-40.741 12.195a8.007 8.007 0 0 0 -10.491 10.5c7.928 18.754-1.616 33.665-12.2 40.735s-28.009 10.183-42.3-4.321c-.04-.039-.1-.1-.137-.135a8.008 8.008 0 0 0 -13.579 5.816c.147 20.362-14.375 30.486-26.856 32.968s-29.773-1.312-37.458-20.249a8 8 0 0 0 -7.4-4.935h-.025a8.014 8.014 0 0 0 -7.393 5c-7.656 18.869-24.948 22.661-37.43 20.181s-27-12.606-26.857-32.9a8.007 8.007 0 0 0 -13.6-5.869c-.04.038-.079.078-.119.117-14.294 14.5-31.722 11.39-42.3 4.321s-20.125-21.981-12.171-40.8a8.007 8.007 0 0 0 -10.512-10.425c-18.756 7.927-33.666-1.615-40.736-12.2s-10.181-28.008 4.3-42.284a8.006 8.006 0 0 0 -5.6-13.733h-.365c-20.155 0-30.191-14.44-32.661-26.858-2.483-12.481 1.313-29.773 20.273-37.466a8.008 8.008 0 0 0 -.093-14.808c-18.867-7.655-22.663-24.947-20.18-37.429 2.47-12.419 12.5-26.857 32.742-26.857h.308a8.007 8.007 0 0 0 5.6-13.715c-14.5-14.294-11.391-31.722-4.32-42.3s21.982-20.126 40.741-12.194a8.007 8.007 0 0 0 10.491-10.5c-7.928-18.754 1.616-33.665 12.2-40.736s28.009-10.181 42.3 4.322l.137.135a8.008 8.008 0 0 0 13.579-5.817c-.147-20.361 14.375-30.485 26.856-32.968s29.773 1.313 37.4 20.118l.01.023a7.994 7.994 0 0 0 7.408 5.044h.029a8.017 8.017 0 0 0 7.418-5c7.656-18.868 24.947-22.66 37.43-20.181s27 12.607 26.857 32.9a8.007 8.007 0 0 0 13.6 5.869c.04-.038.079-.078.119-.117 14.294-14.5 31.722-11.391 42.3-4.322s20.127 21.974 12.176 40.792a8.008 8.008 0 0 0 10.522 10.437c18.757-7.929 33.666 1.614 40.736 12.2s10.181 28.009-4.3 42.284a8.007 8.007 0 0 0 5.6 13.734h.365c20.155 0 30.191 14.439 32.661 26.857 2.482 12.477-1.314 29.77-20.274 37.462z"/><path d="m408 232h-112.769a31.954 31.954 0 0 1 -31.044-24.239l-.187-.745v-31.016a8 8 0 0 0 -8-8h-13.714a34.325 34.325 0 0 0 -34.286 34.286v29.714h-47.548a24.2 24.2 0 0 0 -24.425 22.851 23.959 23.959 0 0 0 11.065 21.375 23.96 23.96 0 0 0 3.034 27.774 23.956 23.956 0 0 0 -.007 31.991 23.8 23.8 0 0 0 -6.092 17.159 24.2 24.2 0 0 0 24.425 22.85h239.548a8 8 0 0 0 8-8v-128a8 8 0 0 0 -8-8zm-120 128h-119.548a8.328 8.328 0 0 1 -8.443-7.6 8 8 0 0 1 7.991-8.4 8 8 0 0 0 0-16 8 8 0 0 1 0-16 8 8 0 0 0 0-16 8 8 0 0 1 0-16 8 8 0 0 0 0-16h-8a8 8 0 0 1 -7.991-8.4 8.328 8.328 0 0 1 8.443-7.6h55.548a8 8 0 0 0 8-8v-37.714a18.307 18.307 0 0 1 18.286-18.286h5.714v24a7.977 7.977 0 0 0 .239 1.94l.425 1.7a47.924 47.924 0 0 0 39.336 35.818zm48 0h-32v-112h32zm64 0h-48v-112h48z"/><path d="m229.483 127.461.388 16.527a8 8 0 0 0 10.291 7.477l15.838-4.738 15.838 4.738a8 8 0 0 0 10.291-7.477l.388-16.527 9.4-13.6a8 8 0 0 0 -3.931-12.1l-15.6-5.476-10.026-13.138a8 8 0 0 0 -12.72 0l-10.028 13.142-15.6 5.476a8 8 0 0 0 -3.931 12.1zm17.687-16.867a7.994 7.994 0 0 0 3.71-2.7l5.12-6.709 5.12 6.709a7.994 7.994 0 0 0 3.71 2.7l7.963 2.8-4.8 6.943a8 8 0 0 0 -1.417 4.361l-.2 8.438-8.086-2.419a7.992 7.992 0 0 0 -4.586 0l-8.086 2.419-.2-8.438a8 8 0 0 0 -1.417-4.361l-4.8-6.943z"/><path d="m139.208 175.789a8 8 0 0 0 10.291 7.477l15.837-4.739 15.838 4.739a8 8 0 0 0 10.291-7.477l.388-16.527 9.4-13.6a8 8 0 0 0 -3.931-12.1l-15.6-5.475-10.022-13.139a8 8 0 0 0 -12.72 0l-10.032 13.142-15.6 5.475a8 8 0 0 0 -3.931 12.1l9.4 13.6zm17.3-33.394a8.006 8.006 0 0 0 3.71-2.7l5.12-6.709 5.12 6.709a8.011 8.011 0 0 0 3.71 2.7l7.963 2.794-4.8 6.944a8 8 0 0 0 -1.417 4.361l-.2 8.438-8.086-2.419a8 8 0 0 0 -4.587 0l-8.084 2.419-.2-8.438a7.991 7.991 0 0 0 -1.417-4.361l-4.8-6.944z"/><path d="m320.147 159.262.388 16.527a8 8 0 0 0 10.291 7.477l15.838-4.739 15.837 4.739a8 8 0 0 0 10.291-7.477l.388-16.527 9.4-13.6a8 8 0 0 0 -3.931-12.1l-15.6-5.475-10.028-13.142a8 8 0 0 0 -12.72 0l-10.025 13.145-15.6 5.475a8 8 0 0 0 -3.931 12.1zm17.687-16.862a8.011 8.011 0 0 0 3.71-2.7l5.12-6.709 5.12 6.709a8.006 8.006 0 0 0 3.71 2.7l7.963 2.794-4.8 6.944a7.991 7.991 0 0 0 -1.417 4.361l-.2 8.438-8.084-2.419a8 8 0 0 0 -4.587 0l-8.086 2.419-.2-8.438a8 8 0 0 0 -1.417-4.361l-4.8-6.944z"/></g></svg>