<?xml version="1.0" standalone="no"?>
<!DOCTYPE svg PUBLIC "-//W3C//DTD SVG 20010904//EN"
 "http://www.w3.org/TR/2001/REC-SVG-20010904/DTD/svg10.dtd">
<svg version="1.0" xmlns="http://www.w3.org/2000/svg"
 width="512.000000pt" height="512.000000pt" viewBox="0 0 512.000000 512.000000"
 preserveAspectRatio="xMidYMid meet">

<g transform="translate(0.000000,512.000000) scale(0.100000,-0.100000)"
fill="#000000" stroke="none">
<path d="M2485 5111 c-92 -24 -173 -90 -215 -176 -20 -41 -24 -66 -24 -135 0
-73 4 -92 27 -138 26 -50 99 -132 118 -132 5 0 9 -67 9 -149 l0 -149 -57 -7
c-286 -34 -553 -147 -835 -354 -18 -13 -27 -7 -118 84 l-99 98 1 82 c1 102
-28 172 -97 239 -82 80 -216 108 -331 69 -67 -23 -164 -120 -187 -187 -39
-115 -11 -249 69 -331 67 -69 137 -98 239 -97 l82 1 98 -99 99 -100 -21 -27
c-183 -234 -315 -546 -348 -825 l-7 -58 -149 0 c-82 0 -149 4 -149 9 0 19 -82
92 -132 118 -46 23 -65 27 -138 27 -100 0 -160 -24 -225 -89 -65 -65 -89 -125
-89 -225 -1 -78 2 -90 33 -148 53 -98 140 -157 249 -168 104 -11 230 43 283
121 l24 35 146 0 147 0 7 -57 c34 -286 147 -553 354 -835 13 -18 7 -27 -84
-118 l-98 -99 -82 1 c-102 1 -172 -28 -239 -97 -80 -82 -108 -216 -69 -331 23
-67 120 -164 187 -187 115 -39 249 -11 331 69 69 67 98 137 97 239 l-1 82 99
98 c91 91 100 97 118 84 280 -205 550 -320 835 -354 l57 -7 0 -149 c0 -82 -4
-149 -9 -149 -19 0 -92 -82 -118 -132 -23 -46 -27 -65 -27 -138 0 -72 4 -93
26 -136 40 -75 70 -107 140 -145 58 -31 70 -34 148 -34 78 0 90 3 148 34 70
38 100 70 140 145 22 43 26 64 26 136 0 70 -4 93 -23 130 -32 61 -74 113 -105
130 l-26 13 0 148 0 147 58 7 c279 33 591 165 825 348 l27 21 100 -99 99 -98
-1 -82 c-1 -102 28 -172 97 -239 64 -63 137 -89 235 -84 90 4 149 29 209 90
60 62 85 119 89 208 5 98 -21 171 -84 235 -67 69 -137 98 -239 97 l-82 -1 -98
99 -99 100 24 32 c197 265 312 538 345 820 l7 58 149 0 c82 0 149 -4 149 -9 0
-19 82 -92 132 -118 46 -23 65 -27 138 -27 72 0 93 4 136 26 75 40 107 70 145
140 31 58 34 70 33 148 0 72 -4 93 -26 136 -40 75 -70 107 -140 145 -58 31
-70 34 -148 33 -73 0 -93 -4 -138 -27 -50 -26 -132 -99 -132 -118 0 -5 -67 -9
-149 -9 l-149 0 -7 58 c-34 285 -147 552 -354 834 -13 18 -7 27 84 118 l98 99
82 -1 c102 -1 172 28 239 97 63 64 89 137 84 235 -4 89 -29 146 -89 208 -60
61 -119 86 -209 90 -98 5 -171 -21 -235 -84 -69 -67 -98 -137 -97 -239 l1 -82
-99 -98 -100 -99 -27 21 c-231 181 -519 305 -797 344 l-86 12 0 146 0 146 34
22 c76 49 133 182 122 286 -7 69 -54 165 -99 203 -77 65 -205 98 -292 75z
m-83 -1266 c7 -105 61 -160 158 -160 97 0 151 55 158 160 l4 65 42 -6 c581
-88 1052 -559 1140 -1140 l6 -42 -65 -4 c-105 -7 -160 -61 -160 -158 0 -97 55
-151 160 -158 l65 -4 -6 -42 c-88 -581 -559 -1052 -1140 -1140 l-42 -6 -4 65
c-7 105 -61 160 -158 160 -98 0 -151 -55 -158 -160 l-4 -65 -37 6 c-300 50
-550 176 -758 381 -204 202 -336 461 -387 764 l-6 37 65 4 c105 7 160 60 160
158 0 97 -55 151 -160 158 -36 2 -65 6 -65 9 0 3 9 49 20 103 109 533 521 947
1053 1059 50 11 97 20 103 20 7 1 13 -24 16 -64z"/>
<path d="M3195 3266 c-52 -20 -130 -101 -144 -152 -27 -96 -7 -171 63 -240 98
-99 234 -99 333 -2 72 70 93 190 50 275 -20 37 -73 90 -112 110 -42 22 -141
27 -190 9z"/>
<path d="M1930 3183 c-61 -22 -142 -104 -163 -167 -63 -184 72 -376 263 -376
151 0 280 129 280 280 0 75 -27 139 -84 196 -80 80 -189 104 -296 67z"/>
<path d="M2624 2306 c-64 -20 -131 -72 -169 -129 -108 -164 -48 -380 130 -468
41 -20 65 -24 135 -24 70 0 94 4 135 24 63 32 124 93 156 156 35 72 35 198 0
270 -32 64 -100 131 -159 157 -58 26 -171 33 -228 14z"/>
</g>
</svg>
